<?xml version="1.0" encoding="UTF-8"?>
<svg xmlns="http://www.w3.org/2000/svg" viewBox="0 0 128 128" width="128" height="128">
  <defs>
    <linearGradient id="top" x1="0" y1="0" x2="0" y2="1">
      <stop offset="0%"   stop-color="#99c1f1"/>
      <stop offset="100%" stop-color="#3584e4"/>
    </linearGradient>
    <linearGradient id="front" x1="0" y1="0" x2="0" y2="1">
      <stop offset="0%"   stop-color="#1c71d8"/>
      <stop offset="100%" stop-color="#1a5fb4"/>
    </linearGradient>
    <linearGradient id="panel" x1="0" y1="0" x2="0" y2="1">
      <stop offset="0%"   stop-color="#f6f5f4"/>
      <stop offset="100%" stop-color="#deddda"/>
    </linearGradient>
  </defs>
  <rect x="14" y="18" width="100" height="88" rx="16" ry="16" fill="url(#top)"/>
  <rect x="14" y="94" width="100" height="10" rx="0" ry="0" fill="url(#front)"/>
  <rect x="14" y="98" width="100" height="8" rx="8" ry="8" fill="url(#front)"/>
  <rect x="24" y="28" width="80" height="64" rx="8" ry="8" fill="url(#panel)"/>
  <path d="M64 38 L44 54 L50 54 L50 72 L78 72 L78 54 L84 54 Z" fill="#3584e4" opacity="0.9"/>
  <rect x="58" y="60" width="12" height="12" rx="2" fill="#1c71d8"/>
  <path d="M82 36 Q90 36 90 44" stroke="#26a269" stroke-width="3" fill="none" stroke-linecap="round" opacity="0.9"/>
  <path d="M82 30 Q97 30 97 44" stroke="#26a269" stroke-width="3" fill="none" stroke-linecap="round" opacity="0.6"/>
  <circle cx="82" cy="44" r="3" fill="#26a269" opacity="0.95"/>
  <circle cx="38" cy="82" r="4" fill="#26a269"/>
  <rect x="46" y="80" width="28" height="3" rx="1.5" fill="#9a9996" opacity="0.6"/>
  <rect x="46" y="85" width="18" height="3" rx="1.5" fill="#9a9996" opacity="0.4"/>
</svg>

